<svg xmlns="http://www.w3.org/2000/svg" viewBox="0 0 512 512" role="img" aria-label="FitTiffin app icon">
  <defs>
    <linearGradient id="g" x1="0" y1="0" x2="1" y2="1">
      <stop offset="0%" stop-color="#65558f" />
      <stop offset="100%" stop-color="#7f67be" />
    </linearGradient>
  </defs>
  <rect x="24" y="24" width="464" height="464" rx="112" fill="url(#g)" />
  <g fill="#ffffff">
    <path d="M188 196h136a52 52 0 0 1 52 52v88a64 64 0 0 1-64 64H200a64 64 0 0 1-64-64v-88a52 52 0 0 1 52-52Zm24 56a12 12 0 0 0 0 24h88a12 12 0 1 0 0-24h-88Zm0 52a12 12 0 0 0 0 24h88a12 12 0 1 0 0-24h-88Z" />
    <path d="M256 116c49.7 0 90 40.3 90 90h-28c0-34.2-27.8-62-62-62s-62 27.8-62 62h-28c0-49.7 40.3-90 90-90Z" />
  </g>
</svg>
